<?xml version="1.0" encoding="utf-8"?><!-- Uploaded to: SVG Repo, www.svgrepo.com, Generator: SVG Repo Mixer Tools -->
<svg fill="#000000" width="800px" height="800px" viewBox="0 0 24 24" id="airplane-mode" data-name="Line Color" xmlns="http://www.w3.org/2000/svg" class="icon line-color"><path id="primary" d="M20,14V11.89a1,1,0,0,0-.42-.81L14,7.16V5a2,2,0,0,0-2-2h0a2,2,0,0,0-2,2V7.16L4.42,11.08a1,1,0,0,0-.42.81V14l6-1v3L8.29,17.71a1,1,0,0,0-.29.7V21l4-2,4,2V18.41a1,1,0,0,0-.29-.7L14,16V13Z" style="fill: none; stroke: rgb(0, 0, 0); stroke-linecap: round; stroke-linejoin: round; stroke-width: 2;"></path></svg>